<?xml version="1.0" encoding="utf-8"?>
<!-- Svg Vector Icons : http://www.onlinewebfonts.com/icon -->
<!DOCTYPE svg PUBLIC "-//W3C//DTD SVG 1.1//EN" "http://www.w3.org/Graphics/SVG/1.1/DTD/svg11.dtd">
<svg version="1.1" xmlns="http://www.w3.org/2000/svg" xmlns:xlink="http://www.w3.org/1999/xlink" x="0px" y="0px" viewBox="0 0 1000 1000" enable-background="new 0 0 1000 1000" xml:space="preserve">
<metadata> Svg Vector Icons : http://www.onlinewebfonts.com/icon </metadata>
<g><g><g><path d="M485.8,61.9C223,61.9,10,258,10,500c0,241.9,213,438.2,475.8,438.2c47.2-256.8,155.3-280.2,260-280.2c23.4,0,46.5,1.2,68.8,1.2c78.4,0,145.7-14.4,171.1-144.5C1028.1,297.7,748.5,61.9,485.8,61.9z M894.2,496.8c-13.5,69-26.1,69-79.5,69c-10.2,0-20.7-0.3-31.3-0.6c-12.4-0.3-25-0.6-37.6-0.6c-120.6,0-263.5,33.2-332.6,274C236.9,808,103.3,667.8,103.3,500c0-190.1,171.6-344.8,382.5-344.8c125.3,0,265.6,68.2,349.2,169.6C862.9,358.7,907.9,426.4,894.2,496.8z"/><path d="M329,557.6c-48.7,0-88.3,39.6-88.3,88.3c0,48.7,39.6,88.3,88.3,88.3c48.6,0,88.3-39.6,88.3-88.3C417.3,597.2,377.7,557.6,329,557.6z M329,687.5c-22.9,0-41.6-18.7-41.6-41.6c0-23,18.7-41.6,41.6-41.6c22.9,0,41.6,18.7,41.6,41.6C370.6,668.8,352,687.5,329,687.5z"/><path d="M273.3,339.3c35.9,0,64.9,29.1,64.9,64.9c0,35.8-29.1,64.9-64.9,64.9c-35.8,0-64.9-29.1-64.9-64.9C208.3,368.4,237.4,339.3,273.3,339.3z"/><path d="M423.4,223.7c35.9,0,64.9,29.1,64.9,65c0,35.9-29.1,64.9-64.9,64.9c-35.9,0-65-29.1-65-64.9C358.5,252.8,387.5,223.7,423.4,223.7z"/><path d="M612.6,270.1c35.9,0,65,29.1,65,65c0,35.9-29.1,64.9-65,64.9c-35.9,0-65-29.1-65-64.9C547.7,299.2,576.7,270.1,612.6,270.1z"/><path d="M759,385.5c35.9,0,65,29.1,65,64.9c0,35.9-29.1,64.9-65,64.9c-35.9,0-64.9-29.1-64.9-64.9C694.1,414.6,723.1,385.5,759,385.5z"/></g></g><g></g><g></g><g></g><g></g><g></g><g></g><g></g><g></g><g></g><g></g><g></g><g></g><g></g><g></g><g></g></g>
</svg>