<?xml version="1.0" encoding="iso-8859-1"?>
<!-- Generator: Adobe Illustrator 19.0.0, SVG Export Plug-In . SVG Version: 6.00 Build 0)  -->
<svg version="1.1" id="Layer_1" xmlns="http://www.w3.org/2000/svg" xmlns:xlink="http://www.w3.org/1999/xlink" x="0px" y="0px"
	 viewBox="0 0 560 560" style="enable-background:new 0 0 560 560;" xml:space="preserve">
<g transform="translate(0 -1)">
	<g>
		<g>
			<path d="M276.452,14.369L126.431,121.527H22.261C9.967,121.527,0,131.494,0,143.788v222.609c0,12.294,9.967,22.261,22.261,22.261
				h104.171l150.021,107.158c14.734,10.524,35.2-0.008,35.2-18.114V32.484C311.652,14.377,291.186,3.845,276.452,14.369z
				 M267.13,434.444l-111.304-79.503v-33.066c0-12.294-9.967-22.261-22.261-22.261c-12.294,0-22.261,9.967-22.261,22.261v22.261
				H44.522V166.049h66.783v22.261c0,12.294,9.967,22.261,22.261,22.261c12.294,0,22.261-9.967,22.261-22.261v-33.066L267.13,75.741
				V434.444z"/>
			<path d="M335.479,116.368c19.387,35.45,30.062,80.642,30.062,127.248c0,46.606-10.675,91.798-30.062,127.248l36.813,20.133
			c22.705-41.517,35.21-93.858,35.21-147.384c0-53.525-12.505-105.866-35.21-147.384L335.479,116.368z"/>
		<path d="M445.27,243.616c0,64.771-14.884,127.662-41.904,177.089l36.816,20.128c30.344-55.487,47.051-125.53,47.051-197.217
			c0-71.687-16.709-141.728-47.051-197.217l-36.816,20.128C430.388,115.954,445.27,178.845,445.27,243.616z"/>
		</g>
	</g>
</g>
<g>
</g>
<g>
</g>
<g>
</g>
<g>
</g>
<g>
</g>
<g>
</g>
<g>
</g>
<g>
</g>
<g>
</g>
<g>
</g>
<g>
</g>
<g>
</g>
<g>
</g>
<g>
</g>
<g>
</g>
</svg>
